<?xml version="1.0" encoding="utf-8"?>
<!-- Generator: Adobe Illustrator 19.0.0, SVG Export Plug-In . SVG Version: 6.00 Build 0)  -->
<svg version="1.1" id="Camada_1" xmlns="http://www.w3.org/2000/svg" xmlns:xlink="http://www.w3.org/1999/xlink" x="0px" y="0px"
	 viewBox="-473.2 263.8 12.4 33.4" style="enable-background:new -473.2 263.8 12.4 33.4;" xml:space="preserve">
<path d="M-461.9,294.1l-3.9,1.3c1-5.5,0.6-5.9,0.5-6l-0.2-0.2h-0.3c-0.2,0-0.6,0-2.5,1.5c0-2.3,0-6.6-0.2-7.4
	c-0.1-0.6-0.7-1-1.4-1.5c-0.2-0.1-0.3-0.2-0.5-0.3c-0.3-0.2-0.8-0.5-1-0.7c1-0.8,2.1-2.2,2.5-2.6c0.1-0.1,0.1-0.1,0.1-0.2l0.1-0.1
	v-7.7l1.5,1.6h2.1l-1.3-6.2l5.5,1.4l0,0v-3h-0.3h-0.7h-0.4l0.3,1.5l-6-1.5l1.3,6.8h-0.1l-3.3-3.4v10.3c-0.2,0.3-0.7,0.9-1.2,1.4
	c0,0.1-0.1,0.1-0.1,0.1c0,0,0,0,0,0h0l-1.2,1.1l-0.6,0.6l2,1.7l0.2,0.2l0.2,0.1c0.3,0.2,1,0.6,1.1,0.8c0.1,0.7,0.2,5.5,0.2,8.6v1.4
	l1-0.9c0.4-0.3,0.7-0.6,1.1-0.9c0.4-0.3,0.8-0.6,1.1-0.9c-0.2,1.5-0.6,4.2-0.8,5.4l-0.1,0.9l5.4-1.7l0,0l-0.3,1.7h1.4l0-3.4
	L-461.9,294.1z"/>
</svg>
