<?xml version="1.0" encoding="utf-8"?>
<svg version="1.1" id="Camada_1" xmlns="http://www.w3.org/2000/svg" xmlns:xlink="http://www.w3.org/1999/xlink" x="0px" y="0px"
	 viewBox="-477 271.7 4.5 19.3" style="enable-background:new -477 271.7 4.5 19.3;" xml:space="preserve">
<path d="M-474.7,278.8v-5.6c-0.9,0.5-1.2,0.5-1.3,0.4c-0.3-0.1-0.7-0.6-1-0.9v-1h0.3l0.1,0.2c0.3,0.3,0.7,0.6,0.8,0.8
	c0.2-0.1,0.9-0.2,1.4-0.6l0.7-0.4v7c0.1,0.9,0.5,2.1,0.8,2.3l0.4,0.4h0l-0.4,0.4c-0.3,0.2-0.7,1.3-0.8,2.3v7l-0.7-0.4
	c-0.5-0.4-1.2-0.5-1.4-0.6c-0.1,0.2-0.5,0.5-0.8,0.8l-0.1,0.2h-0.3v-1c0.3-0.3,0.7-0.8,1-0.9c0.1-0.1,0.4-0.1,1.3,0.4v-5.6
	c0.1-0.5,0.3-1.9,1-2.5h0C-474.4,280.7-474.6,279.3-474.7,278.8z"/>
</svg>
