<?xml version="1.0" encoding="utf-8"?>
<!-- Generator: Adobe Illustrator 19.0.0, SVG Export Plug-In . SVG Version: 6.00 Build 0)  -->
<svg version="1.1" id="Camada_1" xmlns="http://www.w3.org/2000/svg" xmlns:xlink="http://www.w3.org/1999/xlink" x="0px" y="0px"
	 viewBox="-477 271.7 4.5 19.3" style="enable-background:new -477 271.7 4.5 19.3;" xml:space="preserve">
<path d="M-474.8,278.8v-5.6c0.9,0.5,1.2,0.5,1.3,0.4c0.3-0.1,0.7-0.6,1-0.9v-1h-0.3l-0.1,0.2c-0.3,0.3-0.7,0.6-0.8,0.8
	c-0.2-0.1-0.9-0.2-1.4-0.6l-0.7-0.4v7c-0.1,0.9-0.5,2.1-0.8,2.3l-0.4,0.4h0l0.4,0.4c0.3,0.2,0.7,1.3,0.8,2.3v7l0.7-0.4
	c0.5-0.4,1.2-0.5,1.4-0.6c0.1,0.2,0.5,0.5,0.8,0.8l0.1,0.2h0.3v-1c-0.3-0.3-0.7-0.8-1-0.9c-0.1-0.1-0.4-0.1-1.3,0.4v-5.6
	c-0.1-0.5-0.3-1.9-1-2.5h0C-475.1,280.7-474.9,279.3-474.8,278.8z"/>
</svg>
