<?xml version="1.0" encoding="utf-8"?>
<!-- Generator: Adobe Illustrator 19.0.0, SVG Export Plug-In . SVG Version: 6.00 Build 0)  -->
<svg version="1.1" id="Camada_1" xmlns="http://www.w3.org/2000/svg" xmlns:xlink="http://www.w3.org/1999/xlink" x="0px" y="0px"
	 viewBox="-363 265.8 206.7 10.5" style="enable-background:new -363 265.8 206.7 10.5;" xml:space="preserve">
<g id="Personagem">
	<path d="M-235.6,391.8l-2.8-5.8h-42.4l-2.8,5.8l-2.7-5.8h-29.6l-35.4,0.2l-5.3,1.2l0.1-0.7c0.4-2.1,0.8-4.6,0.9-5.7
		c-0.6,0.4-1.6,1.2-2.5,2l-0.8,0.7v-1.1c0-3.1-0.1-7.9-0.2-8.6c-0.1-0.2-1-0.8-1.4-1c-1-0.6-1.8-1-1.8-1.7c0-0.2,0.1-0.5,0.4-0.8
		c0.9-0.6,2.1-2.1,2.5-2.6v-10l3.2,3.2h0.3l-1.3-6.7l6.9,1.7h8.6l2.1-4l2.3,4l21.9-0.1v0.1h20.2l3.2-6.6l2.9,6.6h6.9l2.1-4.5l2,4.6
		h21.6l0.8,1.6l0.8-1.6h23.3l2.8-5.7l2.9,5.7h28.5l0.4,0.7l0.4-0.7h18.2l0.5-0.1h8.2l2.4-4.9l2.4,4.9h21.4l6.9-1.7l-1.3,6.7h0.4
		l3.1-3.2v10.1c0.3,0.4,1.5,1.9,2.5,2.6l0,0c0.4,0.3,0.4,0.6,0.4,0.7c0,0.6-0.8,1.1-1.6,1.6c-0.4,0.3-1.2,0.8-1.3,1l0,0.1l0,0
		c-0.1,0.7-0.2,5.5-0.2,8.6v1.1l-0.8-0.7c-0.9-0.7-1.9-1.5-2.5-1.9c0.1,1.1,0.5,3.5,0.9,5.7l0.1,0.7l-5.4-1.1l-35.5-0.2h-15.1
		l-1.2-2.4l-1.1,2.4H-233L-235.6,391.8z M-286,385h0.3l2.1,4.4l2.2-4.4h43.6l2.2,4.4l2-4.4h37.8l1.7-3.6l1.8,3.6h14.5l35.7,0.2
		l4,0.8c-1.1-5.6-0.7-6-0.6-6.1l0.2-0.2l0.3,0c0.2,0,0.6,0,2.7,1.7c0-2.2,0-6.7,0.2-7.7c0-0.7,0.8-1.3,1.7-1.8
		c0.3-0.2,0.9-0.6,1.1-0.8c-1.2-0.9-2.7-2.8-2.7-2.9l-0.1-0.1v-7.9l-1.7,1.8h-2l1.3-6.3l-5.6,1.3h-22.1l-1.8-3.7l-1.8,3.7h-8.3
		l-0.5,0.1H-196l-1,1.9l-1-1.9h-28.5l-2.3-4.5l-2.2,4.5h-23.3l-1.4,2.8l-1.4-2.8h-21.6l-1.4-3.2l-1.5,3.1h-8.1l-2.3-5.2l-2.6,5.2
		h-21.8v-0.1l-21.5,0.1l-1.7-3l-1.5,3l-9.4,0l-5.4-1.3l1.3,6.3h-1.9l-1.8-1.8v8l-0.1,0.1c-0.1,0.1-1.5,2-2.8,2.9
		c0.2,0.2,0.8,0.6,1.2,0.8c1,0.6,1.8,1,1.9,1.7c0.2,0.8,0.2,5.5,0.2,7.7c2.1-1.7,2.6-1.7,2.7-1.7h0.2l0.2,0.2
		c0.1,0.2,0.5,0.6-0.6,6.1l4-0.8l35.5-0.2H-286z"/>
</g>
<polygon points="-328.1,272.4 -328.1,272.3 -350,272.4 -352.3,268.4 -354.4,272.4 -363,272.4 -363,272.4 -363,273.4 -353.7,273.4 
	-352.2,270.4 -350.5,273.4 -329.1,273.3 -329.1,273.4 -307.2,273.4 -304.7,268.2 -302.4,273.4 -294.2,273.4 -292.8,270.3 
	-291.4,273.5 -269.8,273.5 -268.4,276.3 -266.9,273.5 -243.6,273.5 -241.4,269 -239.2,273.5 -210.7,273.5 -209.7,275.4 
	-208.7,273.5 -190.6,273.5 -190.1,273.4 -181.7,273.4 -180,269.7 -178.2,273.4 -156.3,273.4 -156.3,272.4 -177.5,272.4 -180,267.5 
	-182.4,272.4 -190.6,272.4 -191.1,272.5 -209.3,272.5 -209.7,273.2 -210.1,272.5 -238.5,272.5 -241.5,266.8 -244.3,272.5 
	-267.6,272.5 -268.4,274.1 -269.1,272.5 -290.7,272.5 -292.7,267.9 -294.9,272.4 -301.7,272.4 -304.6,265.8 -307.9,272.4 "/>
</svg>
