<?xml version="1.0" encoding="utf-8"?>
<!-- Generator: Adobe Illustrator 19.0.0, SVG Export Plug-In . SVG Version: 6.00 Build 0)  -->
<svg version="1.1" id="Camada_1" xmlns="http://www.w3.org/2000/svg" xmlns:xlink="http://www.w3.org/1999/xlink" x="0px" y="0px"
	 viewBox="-303 -42.1 337.8 149.8" style="enable-background:new -303 -42.1 337.8 149.8;" xml:space="preserve">
<style type="text/css">
	.st0{display:none;fill:none;stroke:#000000;stroke-miterlimit:10;}
	.st1{fill:#00A1C6;stroke:#000000;stroke-width:1.5;stroke-miterlimit:10;}
</style>
<path id="XMLID_132_" class="st0" d="M-146.2,493.4l-3.6-2.4l0.3-16.9c-1.9,2.6-6.2,2.5-6.2,2.5l-33.7,0.3l-1.6-4.6l1.9-2.4
	l-0.6-0.4c0,0-4.9,2.1-14.8-0.9h-15.8h-6.5h-15.8c-9.9,3-14.8,0.9-14.8,0.9l-0.6,0.6l1.9,2.3l-1.2,4.1l-6.3-0.3v35.3h20.6
	c6.9,1,9.1,6,9.1,6h10h0.5h10.5c0,0,5.7-7,9.4-6h11.9l0,0h35.8c3.1-1,5.8,2.4,5.8,2.4l-0.2-17.8L-146.2,493.4z"/>
<polygon id="XMLID_224_" class="st1" points="30.5,19.5 30.5,19 30.5,-26.9 27.4,-29 28.8,-35.7 22,-33.5 -4.7,-33.5 -32.5,-33.5 
	-35,-38.5 -37.2,-33.5 -71.4,-33.5 -75,-37.3 -78.6,-33.5 -120.6,-33.5 -121.7,-32 -122.8,-33.5 -160.1,-33.5 -162.2,-37.5 
	-163.8,-33.5 -228.6,-33.5 -231.2,-40.2 -234.4,-33.5 -235.5,-33.5 -267,-33.5 -277,-33.5 -278.8,-37.7 -281.1,-33.5 -290,-33.5 
	-296.7,-35.7 -295.4,-29 -298.5,-26.9 -298.5,19 -298.5,19.4 -301.9,22.3 -298.5,25.3 -298.5,94 -295.6,95.5 -296.7,102.5 
	-291.6,100.6 -263.3,100.5 -224.3,100.5 -221.8,106 -218.8,100.5 -37.2,100.5 -35.2,105 -32.7,100.5 -4.7,100.5 23.6,100.6 
	28.8,102.4 27.6,95.5 30.5,94 30.5,24.6 33.6,22.1 "/>
</svg>
