<?xml version="1.0" encoding="utf-8"?>
<!-- Generator: Adobe Illustrator 19.0.0, SVG Export Plug-In . SVG Version: 6.00 Build 0)  -->
<svg version="1.1" id="Camada_1" xmlns="http://www.w3.org/2000/svg" xmlns:xlink="http://www.w3.org/1999/xlink" x="0px" y="0px"
	 viewBox="0 0 139.8 25.1" style="enable-background:new 0 0 139.8 25.1;" xml:space="preserve">
<style type="text/css">
	.st0{fill:#211915;}
</style>
<path id="XMLID_537_" class="st0" d="M135.9,1l-0.8,9.7l3,2.3l-3,2.3l0.8,8.7H3.9l0.8-8.7l-3-2.3l3-2.3L3.9,1 M137,0H2.7l0.1,1.1
	l0.8,9.2l-2.5,1.9L0,13.1l3.6,2.8L2.8,24l-0.1,1.1H137l-0.1-1.1l-0.7-8.1l2.5-1.9l1.1-0.8l-3.6-2.8l0.8-9.2L137,0z"/>
<polyline id="XMLID_535_" class="st0" points="135.1,15.4 134.8,15 137.2,13.1 134.5,11 135.3,1.6 4.4,1.6 5.2,11 2.5,13.1 
	5.2,15.1 4.4,23.6 135.3,23.6 134.5,15.1 134.8,15 135.1,15.4 135.6,15.3 136.5,24.6 3.3,24.6 4.1,15.6 0.8,13.1 4.1,10.5 3.3,0.5 
	136.4,0.5 135.6,10.5 138.9,13.1 135.4,15.8 135.1,15.4 135.6,15.3 135.1,15.4 "/>
</svg>
