<?xml version="1.0" encoding="utf-8"?>
<svg version="1.1" id="Camada_2" xmlns="http://www.w3.org/2000/svg" xmlns:xlink="http://www.w3.org/1999/xlink" x="0px" y="0px"
	 viewBox="-79.2 57.8 200.2 436.9" style="enable-background:new -79.2 57.8 200.2 436.9;" xml:space="preserve" aria-hidden="true">
<style type="text/css">
	.st0{fill:#00A1C6;stroke:#000000;stroke-width:1.5;stroke-miterlimit:10;}
</style>
<path class="st0" d="M115.8,64.4c-0.5-1.5,3-5.9,3-5.9H-5.8c0,0-1.6,4.3-6.6,4.3h-65.6c0,0,2.3,7.2,2.3,12.6l0.7,400.1
	c0,6.8-2,8.3-2,8.3l29.3,0c10.7,0,14.3,5.4,14.3,5.4h20.7l2.4-1.9l2.4,1.9h24.8l3.6,4.4l3.6-4.4h52.5c0,0,2.8-5.4,8.1-5.4h8.1
	l2.9,5.1l2.9-5.1h20.2c-4.4-3.4,0-5.8,0-5.8V68.1C118.8,68.1,116.3,65.9,115.8,64.4"/>
</svg>
