<?xml version="1.0" encoding="utf-8"?>
<!-- Generator: Adobe Illustrator 19.0.0, SVG Export Plug-In . SVG Version: 6.00 Build 0)  -->
<svg version="1.1" id="Camada_1" xmlns="http://www.w3.org/2000/svg" xmlns:xlink="http://www.w3.org/1999/xlink" x="0px" y="0px"
	 viewBox="-510.9 83.2 138.3 87.8" style="enable-background:new -510.9 83.2 138.3 87.8;" xml:space="preserve">
<style type="text/css">
	.st0{fill:#00A1C6;stroke:#000000;stroke-width:1.5;stroke-miterlimit:10;}
</style>
<path id="XMLID_133_" class="st0" d="M-374,126.7c-1.8-1-3.3-2.5-3.3-2.5V95.7l-3.2-2.3l1.1-7.8c-1.9,1.1-8.5,2-9.4,2.2v-0.1
	l-11.6-0.1l-2-3l-2,3l-38.3-0.3l-3.9,0.1l-2.7-1.7l-2.4,2l-20.3,0.5h-1h-11.2l-2-2.4l-1.8,2.4h-6.5c0,0-7.5-1.3-9.5-2.4l1,7.7
	l-3.3,2.2v28.5c0,0-1.4,1.5-3.2,2.5c0,0,3.7,2.8,3.7,3.8s-0.1,28.3-0.1,28.3l2.8,2l-1,6.7l5.6-1.7l15.5,0.2l2.4,3.6l2.1-3.5l5.1,0.1
	l0.1,0.2l30.6-0.2h21.7l1-1.5l1,1.5h34v-0.1l5.4,1.5l-1-6.7l2.9-2c0,0-0.2-27.3-0.2-28.3S-374,126.7-374,126.7z"/>
</svg>
