<?xml version="1.0" encoding="utf-8"?>
<!-- Generator: Adobe Illustrator 19.0.0, SVG Export Plug-In . SVG Version: 6.00 Build 0)  -->
<svg version="1.1" id="Camada_1" xmlns="http://www.w3.org/2000/svg" xmlns:xlink="http://www.w3.org/1999/xlink" x="0px" y="0px"
	 viewBox="0 0 140.1 36.1" style="enable-background:new 0 0 140.1 36.1;" xml:space="preserve">
<style type="text/css">
	.st0{fill:#FFFFFF;}
	.st1{fill:#211915;}
</style>
<polyline id="XMLID_534_" class="st0" points="106.9,32.6 88.3,32.5 88.3,30.1 3.3,30.1 4.1,21.1 0.8,18.6 4.1,16 3.3,6 88.3,6 
	88.3,3.6 106.9,3.5 111.2,0.6 115.5,3.5 134.1,3.6 134.1,14.4 139.2,17.9 134.1,21.3 134.1,32.5 115.5,32.6 111.2,35.5 "/>
<path id="XMLID_531_" class="st1" d="M111.2,1.3l4.1,2.8l18.2,0v10.6l4.7,3.2l-4.7,3.2v11l-18.2,0l-4.1,2.8L107,32l-18.2,0v-2.4H3.9
	l0.8-8.7l-3-2.3l3-2.3L3.9,6.5h84.9V4.1l18.2,0 M111.2,0l-0.6,0.4L106.7,3L88.8,3l-1,0v2.4h-85l0.1,1.1l0.8,9.2L0,18.6l1.1,0.8
	l2.5,1.9l-0.7,8.1l-0.1,1.1h85v2.4l1,0l17.9,0l3.9,2.6l0.6,0.4l0.6-0.4l3.9-2.6l17.9,0l1,0V21.6l4.2-2.9l1.3-0.9l-5.5-3.7V3l-1,0
	l-17.9,0l-3.9-2.6L111.2,0z"/>
<polyline id="XMLID_527_" class="st1" points="138.2,17.9 137.9,18.3 133,15 133,4.6 115.1,4.6 111.2,1.9 107.2,4.6 89.3,4.6 
	89.3,15 85.2,17.9 89.3,20.7 89.3,31.5 107.2,31.5 111.2,34.2 115.1,31.5 133,31.5 133,20.8 137.9,17.4 138.2,17.9 137.9,18.3 
	138.2,17.9 138.5,18.3 134.1,21.3 134.1,32.5 115.5,32.6 111.2,35.5 106.9,32.6 88.3,32.5 88.3,21.2 83.3,17.9 88.3,14.5 88.3,3.6 
	106.9,3.5 111.2,0.6 115.5,3.5 134.1,3.6 134.1,14.4 139.2,17.9 138.5,18.3 138.2,17.9 "/>
<polygon id="XMLID_133_" class="st1" points="89,30 89,29 4.4,29 5.2,20.6 2.5,18.6 5.2,16.5 4.4,7 89,7 89,6 3.3,6 4.1,16 
	0.8,18.6 4.1,21.1 3.3,30 "/>
</svg>
