<?xml version="1.0" encoding="utf-8"?>
<!-- Generator: Adobe Illustrator 19.0.0, SVG Export Plug-In . SVG Version: 6.00 Build 0)  -->
<svg version="1.1" id="Camada_1" xmlns="http://www.w3.org/2000/svg" xmlns:xlink="http://www.w3.org/1999/xlink" x="0px" y="0px"
	 viewBox="-326.9 162.2 190.8 54.2" style="enable-background:new -326.9 162.2 190.8 54.2;" xml:space="preserve">
<style type="text/css">
	.st0{display:none;fill:none;stroke:#000000;stroke-miterlimit:10;}
	.st1{fill:#00A1C6;stroke:#000000;stroke-miterlimit:10;}
</style>
<path id="XMLID_132_" class="st0" d="M-173.5,280.1l-3.6-2.4l0.3-16.9c-1.9,2.6-6.2,2.5-6.2,2.5l-33.7,0.3l-1.6-4.6l1.9-2.4
	l-0.6-0.4c0,0-4.9,2.1-14.8-0.9h-15.8h-6.4h-15.7c-9.9,3-14.8,0.9-14.8,0.9l-0.6,0.6l1.9,2.3l-1.2,4.1l-6.3-0.3v35.3h20.6
	c6.9,1,9.1,6,9.1,6h10h0.5h10.5c0,0,5.7-7,9.4-6h11.9l0,0h35.8c3.1-1,5.8,2.4,5.8,2.4l-0.2-17.8L-173.5,280.1z"/>
<path id="XMLID_131_" class="st1" d="M-137.7,190.4l-3.5-2.6v-14.9c0,0,0.3-4,3.8-7h-23.7h-19.4h-6.3l-14.6-3.2l-15.9,3.2h-65.2
	H-297h-28.5c3.5,3,3.3,7,3.3,7v14.9l-3.5,2.6l3.5,2.8v14.4c0,4.5-3.3,8.3-3.3,8.3h28.5h9.5h112h14.3h23.7c0,0-3.8-3.8-3.8-8.3v-14.4
	L-137.7,190.4z"/>
</svg>
