<?xml version="1.0" encoding="utf-8"?>
<!-- Generator: Adobe Illustrator 19.0.0, SVG Export Plug-In . SVG Version: 6.00 Build 0)  -->
<svg version="1.1" id="Camada_1" xmlns="http://www.w3.org/2000/svg" xmlns:xlink="http://www.w3.org/1999/xlink" x="0px" y="0px"
	 viewBox="-361 245.2 49.6 61" style="enable-background:new -361 245.2 49.6 61;" xml:space="preserve">
<style type="text/css">
	.st0{display:none;fill:none;stroke:#000000;stroke-miterlimit:10;}
</style>
<path id="XMLID_132_" class="st0" d="M-173.5,280.1l-3.6-2.4l0.3-16.9c-1.9,2.6-6.2,2.5-6.2,2.5l-33.7,0.3l-1.6-4.6l1.9-2.4
	l-0.6-0.4c0,0-4.9,2.1-14.8-0.9h-15.8h-6.4h-15.7c-9.9,3-14.8,0.9-14.8,0.9l-0.6,0.6l1.9,2.3l-1.2,4.1l-6.3-0.3v35.3h20.6
	c6.9,1,9.1,6,9.1,6h10h0.5h10.5c0,0,5.7-7,9.4-6h11.9l0,0h35.8c3.1-1,5.8,2.4,5.8,2.4l-0.2-17.8L-173.5,280.1z"/>
<path id="XMLID_133_" class="st0" d="M-286.2,278c0-6.1-4.4-11.1-10-11.8l-1.8-4l-1.5,4c-5.4,1-9.5,5.8-9.5,11.8
	c0,5.9,4.1,10.8,9.6,11.7l1.4,4.1l1.9-4C-290.5,289-286.2,284-286.2,278z"/>
<g id="Escudo_Defesa_2_">
	<path d="M-335.7,306.2l-0.5,0l-6.4-3h-1.6v-1l-8.4-4l-0.2-3.1l-4.4-3.6V272l-3.8-2.9l3.8-2.9v-9.3l-1.9-3.6h5.9l1.6-2l-2.4-5.4
		l3.5,1.4c0.4,0,1.9-0.2,2.8-1.8l0.1-0.2h23.3l0.1,0.3c0.8,1.5,2.4,1.8,2.8,1.8l3.6-1.6l-2.4,5.4l1.5,2.1h6.1l-2.6,3.7v9.3l3.8,2.8
		l-3.8,3v19.5l-4.1,3.5l-0.1,3.4l-8.1,3.8v1.1h-1.7L-335.7,306.2z M-343.2,302.2l0.9,0l6.4,2.9l6.6-3h0.8v-0.7l8.1-3.8l0.1-3.2
		l4.1-3.5v-19.5l3.2-2.4l-3.2-2.4v-10.1l1.6-2.3h-4.7l-2.1-2.9l1.6-3.6l-1.4,0.6l-0.1,0c-0.1,0-2.3-0.1-3.6-2.1H-347
		c-1.3,2-3.5,2-3.6,2l-0.2,0l-1.4-0.5l1.6,3.8l-2.2,2.8h-4.7l1.3,2.4v10.1l-3.2,2.5l3.2,2.5v19.5l4.4,3.6l0.2,2.9l8.4,4V302.2z"/>
</g>
<path id="XMLID_131_" class="st0" d="M-163,270.3v-9.8c0-0.3,0-2.4,0-2.4s0.3-6,3-7h-25h-0.5H-211h-30h-24.9h-1.1h-25c2.7,1,3,7,3,7
	s0.1,2.2,0,2.5l-0.2,38.1c0,0,0,10.4-2.8,12.4h18h31.5l18.5-3.4l14.5,3.4h31.5h18c-2.8-2-2.8-12.5-2.8-12.5l-0.1-24.8l2.9-1.7
	L-163,270.3z"/>
</svg>
