<?xml version="1.0" encoding="utf-8"?>
<!-- Generator: Adobe Illustrator 19.0.0, SVG Export Plug-In . SVG Version: 6.00 Build 0)  -->
<svg version="1.1" id="Camada_1" xmlns="http://www.w3.org/2000/svg" xmlns:xlink="http://www.w3.org/1999/xlink" x="0px" y="0px"
	 viewBox="-359.7 247.9 135 61" style="enable-background:new -359.7 247.9 135 61;" xml:space="preserve">
<style type="text/css">
	.st0{display:none;fill:none;stroke:#000000;stroke-miterlimit:10;}
</style>
<path id="XMLID_132_" class="st0" d="M-173.5,280.1l-3.6-2.4l0.3-16.9c-1.9,2.6-6.2,2.5-6.2,2.5l-33.7,0.3l-1.6-4.6l1.9-2.4
	l-0.6-0.4c0,0-4.9,2.1-14.8-0.9h-15.8h-6.4h-15.7c-9.9,3-14.8,0.9-14.8,0.9l-0.6,0.6l1.9,2.3l-1.2,4.1l-6.3-0.3v35.3h20.6
	c6.9,1,9.1,6,9.1,6h10h0.5h10.5c0,0,5.7-7,9.4-6h11.9l0,0h35.8c3.1-1,5.8,2.4,5.8,2.4l-0.2-17.8L-173.5,280.1z"/>
<path id="XMLID_133_" class="st0" d="M-286.2,278c0-6.1-4.4-11.1-10-11.8l-1.8-4l-1.5,4c-5.4,1-9.5,5.8-9.5,11.8
	c0,5.9,4.1,10.8,9.6,11.7l1.4,4.1l1.9-4C-290.5,289-286.2,284-286.2,278z"/>
<path id="Escudo_Defesa_2_" class="st0" d="M-305.7,271.9v-9.7l2.1-3h-5.4l-1.8-2.5l2-4.5l-2.5,1.1c0,0-2.2-0.1-3.3-2.1h-5.4h-6
	h-7.5h-3.8c-1.2,2-3.3,2-3.3,2l-2.5-1l2,4.6l-1.9,2.4h-5.3l1.6,3v9.7l-3.5,2.7l3.5,2.7v19.5l4.4,3.6l0.2,3l8.4,4v0.8h1.2l6.5,3h0.2
	l6.5-3h1.3v-0.9l8.1-3.8l0.1-3.3l4.1-3.5v-19.5l3.5-2.7L-305.7,271.9z"/>
<g id="XMLID_131_">
	<path d="M-224.6,308.9l-51.2,0l-15.9-3.3l-16.9,3.3l-51.2,0l1.3-0.9c2.1-1.5,2.6-9.2,2.6-12l0.2-38.3c0-0.2,0-1.4,0-2.3
		c-0.1-1.6-0.7-5.8-2.7-6.6l-2.6-1h137.6l-2.6,1c-2,0.7-2.6,5-2.7,6.6l0,11.9l3.5,2.1l-3.4,2l0.1,24.5c0,2.9,0.5,10.6,2.6,12.1
		L-224.6,308.9z M-275.7,307.9h48.3c-2.1-3.2-2.2-11-2.2-12l-0.1-25.1l2.4-1.4l-2.5-1.5v-12.5c0-0.2,0.2-4.4,2-6.5h-129
		c1.8,2.1,2,6.3,2,6.5c0,1,0.1,2.1,0,2.6l-0.2,38.1c0,1-0.1,8.8-2.2,11.9h48.4l17-3.5l0,0L-275.7,307.9z"/>
</g>
</svg>
