<?xml version="1.0" encoding="utf-8"?>
<svg version="1.1" id="Camada_3" xmlns="http://www.w3.org/2000/svg" xmlns:xlink="http://www.w3.org/1999/xlink" x="0px" y="0px"
	 viewBox="-410 221.7 141.5 35.8" style="enable-background:new -410 221.7 141.5 35.8;" xml:space="preserve" aria-hidden="true">
<style type="text/css">
	.st0{fill:#00A1C6;stroke:#000000;stroke-width:1.5;stroke-miterlimit:10;}
	.st1{fill:none;stroke:#000000;stroke-miterlimit:10;}
</style>
<g>
	<polygon class="st0" points="-274.7,236.3 -274.7,225.2 -293.1,225.2 -297.3,222.6 -301.6,225.2 -320,225.2 -320,228 -384.4,228 
		-396.2,228 -407.6,228 -407,237.8 -409,240.2 -407,242.4 -407.5,251.1 -391.8,251.1 -384.4,251.1 -320,251.1 -320,253.8 
		-301.6,253.6 -297.4,256.5 -293.3,253.7 -275.1,253.7 -275.1,243.1 -269.8,239.5 	"/>
	<polygon class="st1" points="-319.8,225.2 -301.4,225.2 -297.2,222.6 -293,225.2 -274.7,225.2 -274.7,236.3 -269.8,239.5 
		-275.1,243.1 -275.1,253.7 -293.2,253.7 -297.2,256.5 -301.4,253.6 -319.8,253.8 -319.8,242.5 -324.1,239.7 -319.6,236.3 	"/>
</g>
</svg>
